<svg xmlns="http://www.w3.org/2000/svg" xmlns:xlink="http://www.w3.org/1999/xlink" viewBox="0,0,256,256" width="144px" height="144px" fill-rule="nonzero"><g fill="none" fill-rule="nonzero" stroke="none" stroke-width="1" stroke-linecap="butt" stroke-linejoin="miter" stroke-miterlimit="10" stroke-dasharray="" stroke-dashoffset="0" font-family="none" font-weight="none" font-size="none" text-anchor="none" style="mix-blend-mode: normal"><g transform="scale(5.33333,5.33333)"><circle cx="24" cy="24" r="20" fill="#60d0e0"></circle><path d="M34.232,36.011l-1.357,-3.386l-4.696,-2.3c-3.179,4.675 -7.193,5.728 -11.179,4.675c-6.625,-1.75 -10.266,-6.062 -10.266,-6.062c2.116,6.98 9.595,12.062 17.266,12.062c3.745,0 7.195,-1.226 10.004,-3.278z" fill="#bbdefb"></path><path d="M4.001,5.084l11.849,15.081c1.983,2.523 4.155,4.892 7.332,5.346l2.828,-2.828c-0.454,-3.177 -2.822,-5.349 -5.346,-7.332l-15.08,-11.85c-0.449,-0.353 -1.09,-0.314 -1.494,0.089v0c-0.403,0.404 -0.442,1.045 -0.089,1.494z" fill="#37474f"></path><path d="M30.96,27.632l-2.828,2.828l-4.95,-4.95c0.462,-1.373 1.392,-2.327 2.828,-2.828z" fill="#bbdefb"></path><path d="M33.125,28.25c-1.25,-0.875 -3.115,-1.083 -4.286,0.089c-1.172,1.172 -1.172,3.071 0,4.243c0.413,0.413 1.14,0.76 1.661,0.919c2.462,0.749 2.967,1.583 3.5,4.25c3.536,-6.365 0.052,-8.852 -0.875,-9.501z" fill="#37474f"></path></g></g></svg>